<svg
	xmlns="http://www.w3.org/2000/svg"
	xml:space="preserve"
	viewBox="0 0 296 296"
>
	<defs>
		<g id="snowfall-flake-1">
			<path
				d="M249.987 184.875a7.475 7.475 0 0 0-6.361-2.463 7.497 7.497 0 0 0-5.727 3.71l-2.145 3.717-12.848-7.417 19.41-12.416a7.498 7.498 0 0 0 2.277-10.359 7.501 7.501 0 0 0-10.359-2.277l-25.133 16.077L190.476 148l18.85-25.752 24.609 16.813a7.493 7.493 0 0 0 10.424-1.962 7.502 7.502 0 0 0-1.963-10.424l-19.842-13.556 13.201-7.622 2.455 4.252a7.496 7.496 0 0 0 12.127 1.201l25.274-28.753a7.499 7.499 0 0 0-7.164-12.293l-37.373 7.794a7.497 7.497 0 0 0-4.964 11.091l2.146 3.717-12.848 7.417-1.047-23.019a7.5 7.5 0 0 0-14.984.682l1.342 29.478-31.877 3.467-12.632-28.654 26.361-13.661a7.5 7.5 0 0 0 3.207-10.11c-1.906-3.678-6.702-5.113-10.381-3.208L154.667 65.5V51h4.836a.067.067 0 0 0 .02 0c4.143 0 7.5-3.324 7.5-7.467a7.303 7.303 0 0 0-.57-2.838L154.689 5.023C153.681 1.957 150.823 0 147.595 0h-.029c-3.215 0-6.074 1.918-7.105 4.966l-12.264 36.132A7.498 7.498 0 0 0 135.303 51h4.365v14.91l-21.389-10.407c-3.734-1.793-8.079-.222-9.874 3.513-1.793 3.733-.153 8.215 3.582 10.009l26.297 12.618-12.721 28.888-30.577-3.326 1.343-29.452a7.497 7.497 0 0 0-7.148-7.833c-4.131-.164-7.643 3.015-7.832 7.151l-1.046 23.019-12.557-7.25 2.147-3.717a7.5 7.5 0 0 0-4.964-11.091l-37.373-7.794a7.498 7.498 0 0 0-7.164 12.293l25.274 28.753a7.493 7.493 0 0 0 6.371 2.513 7.496 7.496 0 0 0 5.756-3.714l2.455-4.252 12.912 7.455-19.846 13.554a7.502 7.502 0 0 0 4.238 13.694c1.457 0 2.93-.424 4.223-1.308l23.832-16.28L103.944 148l-18.131 24.771-24.34-15.568a7.501 7.501 0 0 0-10.359 2.277 7.502 7.502 0 0 0 2.277 10.359l19.412 12.416-12.559 7.25-2.145-3.717a7.496 7.496 0 0 0-5.727-3.71 7.476 7.476 0 0 0-6.361 2.463l-25.438 28.47a7.502 7.502 0 0 0 5.592 12.497c.488 0 .981-.048 1.473-.146l37.537-7.511a7.502 7.502 0 0 0 5.023-11.105l-2.455-4.252 12.912-7.455 1.818 23.964a7.5 7.5 0 0 0 8.047 6.912 7.498 7.498 0 0 0 6.91-8.046l-2.207-29.101 30.354-3.301 12.617 28.613-26.143 12.56a7.502 7.502 0 0 0-3.514 10.009c1.795 3.734 6.005 5.305 9.738 3.513l21.389-10.407V245h-4.365c-2.418 0-4.686 1.131-6.094 3.095a7.431 7.431 0 0 0-1.012 6.741l12.264 36.198c1.031 3.048 3.889 4.966 7.105 4.966h.029c3.229 0 6.086-1.957 7.094-5.023l11.938-36.132A7.5 7.5 0 0 0 159.5 245h-4.836v-14.834l20.73 10.603c1.104.571 2.417.843 3.581.843 2.711 0 5.398-1.477 6.732-4.051 1.906-3.678.504-8.204-3.174-10.11l-26.225-13.6 12.521-28.382 31.65 3.441-2.209 29.125a7.503 7.503 0 0 0 14.96 1.134l1.818-23.963 13.203 7.622-2.455 4.252a7.5 7.5 0 0 0 5.023 11.105l37.537 7.511a7.503 7.503 0 0 0 7.983-3.631 7.502 7.502 0 0 0-.918-8.721l-25.434-28.469z"
			/>
		</g>
	</defs>
</svg>
